<svg width="1200" height="216" viewBox="0 0 1200 216" fill="none" xmlns="http://www.w3.org/2000/svg">
<rect width="1200" height="216" rx="16" fill="#3671E9"/>
<mask id="mask0_2431_276" style="mask-type:alpha" maskUnits="userSpaceOnUse" x="0" y="0" width="1200" height="216">
<rect width="1200" height="216" rx="16" fill="#3671E9"/>
</mask>
<g mask="url(#mask0_2431_276)">
<path d="M1190.65 155.394C1193.5 135.967 1178.76 125.453 1158.42 118.483L1165.05 92.0848L1149.05 88.0851L1142.65 113.797C1138.42 112.769 1134.08 111.74 1129.74 110.826L1136.14 84.9997L1120.14 81L1113.62 107.284C1110.08 106.484 1106.65 105.684 1103.34 104.884V104.769L1081.17 99.2842L1076.94 116.426C1076.94 116.426 1088.83 119.168 1088.6 119.282C1095.11 120.882 1096.25 125.225 1096.02 128.653L1088.48 158.708C1088.94 158.822 1089.51 158.936 1090.2 159.279C1089.63 159.165 1089.05 159.051 1088.48 158.822L1077.97 200.876C1077.17 202.818 1075.11 205.79 1070.66 204.647C1070.77 204.875 1059 201.79 1059 201.79L1051 220.188L1071.91 225.445C1075.8 226.474 1079.57 227.388 1083.34 228.416L1076.71 255.043L1092.71 259.042L1099.34 232.644C1103.68 233.787 1108.02 234.93 1112.14 235.958L1105.62 262.242L1121.62 266.242L1128.25 239.615C1155.68 244.758 1176.25 242.701 1184.82 217.903C1191.79 198.019 1184.47 186.477 1170.08 178.935C1180.7 176.535 1188.59 169.564 1190.65 155.394ZM1153.96 206.818C1149.05 226.702 1115.45 215.96 1104.6 213.217L1113.39 177.906C1124.25 180.649 1159.22 186.02 1153.96 206.818ZM1158.99 155.051C1154.42 173.221 1126.54 163.964 1117.51 161.679L1125.51 129.682C1134.54 131.967 1163.68 136.195 1158.99 155.051Z" fill="url(#paint0_linear_2431_276)"/>
<path d="M101.41 155.686L22 108.823L101.361 220.698L180.812 108.823L101.361 155.686H101.41ZM102.59 -38L23.2126 93.7462L102.59 140.69L182 93.7946L102.59 -38Z" fill="url(#paint1_linear_2431_276)"/>
</g>
<defs>
<linearGradient id="paint0_linear_2431_276" x1="1121" y1="81" x2="1121" y2="266.242" gradientUnits="userSpaceOnUse">
<stop stop-color="white" stop-opacity="0.16"/>
<stop offset="1" stop-color="white" stop-opacity="0"/>
</linearGradient>
<linearGradient id="paint1_linear_2431_276" x1="102" y1="-38" x2="102" y2="186.414" gradientUnits="userSpaceOnUse">
<stop stop-color="white" stop-opacity="0.16"/>
<stop offset="1" stop-color="white" stop-opacity="0"/>
</linearGradient>
</defs>
</svg>
