<svg width="1440" height="890" viewBox="0 0 1440 890" fill="none" xmlns="http://www.w3.org/2000/svg">
<g clip-path="url(#clip0_2104_5221)">
<rect width="1440" height="890" fill="#020121"/>
<rect x="1560.61" y="255" width="120" height="997.881" transform="rotate(45 1560.61 255)" fill="url(#paint0_linear_2104_5221)"/>
<path d="M151.167 104.583C168.406 134.442 173.077 169.926 164.154 203.23C155.23 236.533 133.442 264.928 103.583 282.167C73.7244 299.406 38.2402 304.077 4.93684 295.154C-28.3665 286.23 -56.7609 264.442 -74 234.583L38.5833 169.583L151.167 104.583Z" fill="url(#paint1_linear_2104_5221)"/>
<path d="M197 617C197 648.826 184.357 679.348 161.853 701.853C139.348 724.357 108.826 737 77 737C45.174 737 14.6516 724.357 -7.8528 701.853C-30.3572 679.348 -43 648.826 -43 617L5 617C5 636.096 12.5857 654.409 26.0883 667.912C39.5909 681.414 57.9044 689 77 689C96.0956 689 114.409 681.414 127.912 667.912C141.414 654.409 149 636.096 149 617H197Z" fill="url(#paint2_linear_2104_5221)"/>
</g>
<defs>
<linearGradient id="paint0_linear_2104_5221" x1="1620.61" y1="601.76" x2="1620.61" y2="1252.88" gradientUnits="userSpaceOnUse">
<stop stop-color="white" stop-opacity="0"/>
<stop offset="1" stop-color="white" stop-opacity="0.1"/>
</linearGradient>
<linearGradient id="paint1_linear_2104_5221" x1="-53.7163" y1="251.05" x2="114.417" y2="251.05" gradientUnits="userSpaceOnUse">
<stop stop-color="white" stop-opacity="0.08"/>
<stop offset="1" stop-color="#35068C" stop-opacity="0.01"/>
</linearGradient>
<linearGradient id="paint2_linear_2104_5221" x1="-34.3852" y1="639.526" x2="100.022" y2="717.126" gradientUnits="userSpaceOnUse">
<stop offset="0.0625" stop-color="white" stop-opacity="0.08"/>
<stop offset="1" stop-color="white" stop-opacity="0"/>
</linearGradient>
<clipPath id="clip0_2104_5221">
<rect width="1440" height="890" fill="white"/>
</clipPath>
</defs>
</svg>
