<svg width="98" height="99" viewBox="0 0 98 99" fill="none" xmlns="http://www.w3.org/2000/svg">
<path d="M49 98.4694C76.062 98.4694 98 76.5313 98 49.4694C98 22.4074 76.062 0.46936 49 0.46936C21.938 0.46936 0 22.4074 0 49.4694C0 76.5313 21.938 98.4694 49 98.4694Z" fill="#F7931A"/>
<path d="M71.0163 43.4056C71.9779 36.9866 67.0871 33.5352 60.4047 31.2322L62.573 22.5347L57.281 21.2178L55.1678 29.6856C53.7775 29.3365 52.3503 29.0119 50.9263 28.6872L53.0547 20.1643L47.7627 18.8444L45.5945 27.5388C44.443 27.2754 43.3098 27.0182 42.2135 26.7425L42.2196 26.715L34.9186 24.8928L33.5098 30.5462C33.5098 30.5462 37.439 31.4466 37.3563 31.5017C39.5001 32.0376 39.886 33.4555 39.8216 34.5825L37.3533 44.4897C37.5003 44.5265 37.6901 44.5816 37.9045 44.6643L37.3441 44.5265L33.8835 58.4057C33.6201 59.055 32.9555 60.0319 31.4549 59.6614C31.51 59.7379 27.6084 58.7028 27.6084 58.7028L24.9808 64.7604L31.8714 66.4785C33.1515 66.8001 34.4071 67.1369 35.6413 67.4524L33.4516 76.2479L38.7406 77.5647L40.9088 68.8672C42.3543 69.2562 43.757 69.6175 45.129 69.9606L42.9668 78.6213L48.2588 79.9382L50.4485 71.1611C59.4768 72.8699 66.2633 72.1809 69.1206 64.0162C71.4236 57.4441 69.0073 53.6497 64.2573 51.1782C67.718 50.382 70.3211 48.1066 71.0163 43.4056ZM58.9194 60.3657C57.2871 66.9409 46.2161 63.3854 42.6269 62.4942L45.5363 50.8414C49.1255 51.7387 60.6313 53.5119 58.9194 60.3657ZM60.5578 43.3107C59.0664 49.2917 49.8544 46.2507 46.8685 45.5065L49.5022 34.9409C52.4881 35.685 62.1136 37.0724 60.5578 43.3107Z" fill="white"/>
</svg>
