<svg width="107" height="106" viewBox="0 0 107 106" fill="none" xmlns="http://www.w3.org/2000/svg">
<path d="M53.5 106C83.0472 106 107 82.2711 107 53C107 23.7289 83.0472 0 53.5 0C23.9528 0 0 23.7289 0 53C0 82.2711 23.9528 106 53.5 106Z" fill="#2E3148"/>
<path d="M53.567 18.3182C49.2369 18.3182 45.726 33.877 45.726 53.0663C45.726 72.2556 49.2369 87.8144 53.567 87.8144C57.8939 87.8144 61.4048 72.2556 61.4048 53.0663C61.4048 33.877 57.8939 18.3182 53.567 18.3182ZM54.1087 85.8501C53.6139 86.506 53.1156 86.0157 53.1156 86.0157C51.1228 83.7235 50.1263 79.4736 50.1263 79.4736C46.6388 68.3535 47.468 44.4803 47.468 44.4803C49.1065 25.5295 52.0891 21.051 53.1023 20.0572C53.206 19.9553 53.3429 19.8931 53.4886 19.8816C53.6342 19.87 53.7793 19.91 53.8981 19.9943C55.3693 21.0311 56.6065 25.3506 56.6065 25.3506C60.2512 38.7596 59.9202 51.3471 59.9202 51.3471C60.2512 62.3049 58.0945 74.5677 58.0945 74.5677C56.4326 83.8891 54.1087 85.8501 54.1087 85.8501Z" fill="white"/>
<path d="M83.9883 35.7751C81.8316 32.0518 66.4671 36.7788 49.658 46.3287C32.849 55.8786 20.9921 66.6343 23.1421 70.3576C25.2988 74.0808 40.6667 69.3539 57.4757 59.804C74.2847 50.254 86.1417 39.495 83.9883 35.7751ZM25.1283 69.8441C24.3057 69.7448 24.493 69.069 24.493 69.069C25.5028 66.2203 28.7262 63.2456 28.7262 63.2456C36.7277 54.716 58.0475 43.5495 58.0475 43.5495C75.4551 35.5266 80.8619 35.8645 82.2328 36.2355C82.3744 36.274 82.4975 36.3611 82.5802 36.4813C82.6629 36.6014 82.6998 36.7468 82.6843 36.8914C82.5171 38.6702 79.3405 41.8833 79.3405 41.8833C69.4229 51.6916 58.2347 57.6773 58.2347 57.6773C48.8054 63.4146 36.9919 67.6579 36.9919 67.6579C28.0039 70.8644 25.1283 69.8441 25.1283 69.8441Z" fill="white"/>
<path d="M83.9115 70.4802C86.085 66.7702 74.2581 55.9615 57.5026 46.3387C40.7504 36.7192 25.3892 31.9359 23.2191 35.6526C21.0457 39.3725 32.8759 50.1713 49.6348 59.7941C66.397 69.4136 81.7415 74.1968 83.9115 70.4802ZM24.6603 37.0869C24.3359 36.3316 25.0147 36.1494 25.0147 36.1494C28.0141 35.5863 32.2272 36.8683 32.2272 36.8683C43.6862 39.452 64.1199 52.1323 64.1199 52.1323C79.8522 63.037 82.2664 67.8434 82.6275 69.2049C82.6641 69.3448 82.6496 69.493 82.5866 69.6233C82.5236 69.7536 82.4161 69.8576 82.2831 69.9171C80.6447 70.6624 76.2477 69.5527 76.2477 69.5527C62.7055 65.9553 51.8751 59.3668 51.8751 59.3668C42.1448 54.1661 32.5215 46.1664 32.5215 46.1664C25.2087 40.0648 24.6636 37.0902 24.6636 37.0902L24.6569 37.0869H24.6603Z" fill="white"/>
<path d="M53.4832 57.0711C55.7621 57.0711 57.6094 55.241 57.6094 52.9834C57.6094 50.7259 55.7621 48.8958 53.4832 48.8958C51.2044 48.8958 49.3571 50.7259 49.3571 52.9834C49.3571 55.241 51.2044 57.0711 53.4832 57.0711Z" fill="white"/>
<path d="M70.4028 40.5981C72.2495 40.5981 73.7466 39.115 73.7466 37.2856C73.7466 35.4561 72.2495 33.9731 70.4028 33.9731C68.5561 33.9731 67.0591 35.4561 67.0591 37.2856C67.0591 39.115 68.5561 40.5981 70.4028 40.5981Z" fill="white"/>
<path d="M31.1171 48.9389C32.9638 48.9389 34.4608 47.4558 34.4608 45.6264C34.4608 43.797 32.9638 42.3139 31.1171 42.3139C29.2704 42.3139 27.7733 43.797 27.7733 45.6264C27.7733 47.4558 29.2704 48.9389 31.1171 48.9389Z" fill="white"/>
<path d="M48.6146 79.023C50.4613 79.023 51.9584 77.54 51.9584 75.7105C51.9584 73.8811 50.4613 72.398 48.6146 72.398C46.7679 72.398 45.2709 73.8811 45.2709 75.7105C45.2709 77.54 46.7679 79.023 48.6146 79.023Z" fill="white"/>
</svg>
