<svg width="81" height="81" viewBox="0 0 81 81" fill="none" xmlns="http://www.w3.org/2000/svg">
<path d="M40.5 81C62.8675 81 81 62.8675 81 40.5C81 18.1325 62.8675 0 40.5 0C18.1325 0 0 18.1325 0 40.5C0 62.8675 18.1325 81 40.5 81Z" fill="#627EEA"/>
<path d="M41.7607 10.125V32.5772L60.7375 41.0569L41.7607 10.125Z" fill="white" fill-opacity="0.602"/>
<path d="M41.7606 10.125L22.7812 41.0569L41.7606 32.5772V10.125Z" fill="white"/>
<path d="M41.7607 55.6065V70.8623L60.7502 44.5905L41.7607 55.6065Z" fill="white" fill-opacity="0.602"/>
<path d="M41.7606 70.8623V55.6039L22.7813 44.5905L41.7606 70.8623Z" fill="white"/>
<path d="M41.7607 52.0754L60.7375 41.0568L41.7607 32.5822V52.0754Z" fill="white" fill-opacity="0.2"/>
<path d="M22.7813 41.0568L41.7606 52.0754V32.5822L22.7813 41.0568Z" fill="white" fill-opacity="0.602"/>
</svg>
