<svg width="98" height="98" viewBox="0 0 98 98" fill="none" xmlns="http://www.w3.org/2000/svg">
<path d="M48.7347 97.4694C75.6501 97.4694 97.4694 75.6501 97.4694 48.7347C97.4694 21.8193 75.6501 0 48.7347 0C21.8193 0 0 21.8193 0 48.7347C0 75.6501 21.8193 97.4694 48.7347 97.4694Z" fill="#2775C9"/>
<path d="M47.9732 83.7628C28.2052 83.7628 12.1837 67.7413 12.1837 47.9733C12.1837 28.2052 28.2052 12.1837 47.9732 12.1837C67.7412 12.1837 83.7628 28.2052 83.7628 47.9733C83.7628 57.4652 79.9921 66.5684 73.2802 73.2803C66.5684 79.9921 57.4652 83.7628 47.9732 83.7628ZM45.8411 34.6931C43.8829 34.7902 42.0317 35.6157 40.651 37.0077C39.2703 38.3997 38.4598 40.2575 38.3786 42.2165C38.3786 45.902 40.6326 48.3083 45.4147 49.3135L48.7652 50.1054C52.0243 50.8669 53.3645 51.9634 53.3645 53.8214C53.3645 55.6794 51.0191 57.507 47.9732 57.507C46.8913 57.6062 45.8033 57.3988 44.8337 56.9086C43.8642 56.4185 43.0521 55.6653 42.4906 54.7352C42.3242 54.3823 42.0615 54.0836 41.7328 53.8734C41.4041 53.6632 41.0227 53.5502 40.6326 53.5473H38.8355C38.6973 53.5729 38.5655 53.6256 38.4477 53.7023C38.33 53.779 38.2285 53.8782 38.1493 53.9943C38.07 54.1104 38.0145 54.241 37.9859 54.3786C37.9573 54.5162 37.9562 54.6581 37.9826 54.7961C38.4204 56.5827 39.4382 58.1737 40.8767 59.3201C42.3152 60.4665 44.0932 61.1036 45.9325 61.1316V63.6902C45.9325 64.2597 46.1587 64.8059 46.5614 65.2086C46.9641 65.6113 47.5103 65.8376 48.0798 65.8376C48.6493 65.8376 49.1955 65.6113 49.5983 65.2086C50.001 64.8059 50.2272 64.2597 50.2272 63.6902V61.1012C52.3069 61.0776 54.2952 60.243 55.7688 58.7752C57.2423 57.3074 58.0845 55.3223 58.1161 53.2427C58.1161 49.3744 55.8926 47.1509 50.6232 46.0239L47.5773 45.3538C44.5313 44.5923 43.0998 43.5871 43.0998 41.8814C43.0998 40.1757 44.9273 38.2872 47.9732 38.2872C48.9325 38.187 49.9003 38.3667 50.7597 38.8045C51.6191 39.2423 52.3333 39.9195 52.8162 40.7544C53.012 41.1714 53.3219 41.5243 53.7101 41.7723C54.0982 42.0203 54.5487 42.1532 55.0093 42.1556H56.4409C56.7664 42.0759 57.0476 41.8718 57.2242 41.587C57.4007 41.3022 57.4585 40.9595 57.3851 40.6326C56.9724 38.983 56.0494 37.5059 54.7476 36.412C53.4458 35.3181 51.8318 34.6632 50.1358 34.5408V32.4391C50.1358 31.8696 49.9096 31.3234 49.5069 30.9206C49.1042 30.5179 48.558 30.2917 47.9885 30.2917C47.4189 30.2917 46.8727 30.5179 46.47 30.9206C46.0673 31.3234 45.8411 31.8696 45.8411 32.4391V34.6931ZM21.1387 47.9733C21.1422 53.584 22.9083 59.052 26.1876 63.6047C29.4668 68.1574 34.0935 71.5649 39.4142 73.3458H39.8406C40.2041 73.3458 40.5528 73.2013 40.8098 72.9443C41.0669 72.6872 41.2113 72.3386 41.2113 71.9751V71.3354C41.2123 70.7685 41.0449 70.2139 40.7304 69.7422C40.4159 69.2704 39.9684 68.9026 39.4447 68.6855C35.301 67.013 31.7517 64.1403 29.2524 60.4362C26.753 56.7321 25.4176 52.3656 25.4176 47.8971C25.4176 43.4286 26.753 39.0621 29.2524 35.358C31.7517 31.6539 35.301 28.7812 39.4447 27.1087C39.966 26.8969 40.4125 26.5347 40.7271 26.0682C41.0417 25.6016 41.2103 25.0519 41.2113 24.4892V23.7887C41.2133 23.583 41.1656 23.3798 41.0724 23.1965C40.9791 23.0131 40.843 22.855 40.6756 22.7354C40.5082 22.6158 40.3145 22.5384 40.1108 22.5097C39.9071 22.4809 39.6995 22.5017 39.5056 22.5703C34.1629 24.3372 29.5128 27.7426 26.2157 32.3028C22.9186 36.8629 21.1422 42.346 21.1387 47.9733ZM74.8078 47.9733C74.7979 42.3677 73.0288 36.9066 69.75 32.3599C66.4712 27.8133 61.848 24.4105 56.5323 22.6312H56.0754C55.6957 22.6312 55.3316 22.782 55.0631 23.0505C54.7946 23.319 54.6438 23.6831 54.6438 24.0628V24.5197C54.6561 25.1072 54.838 25.6785 55.1677 26.1649C55.4974 26.6513 55.9607 27.032 56.5018 27.261C60.636 28.9384 64.1757 31.8113 66.6678 35.5119C69.1599 39.2125 70.4912 43.5726 70.4912 48.0342C70.4912 52.4957 69.1599 56.8558 66.6678 60.5564C64.1757 64.2571 60.636 67.1299 56.5018 68.8073C55.971 69.0387 55.5172 69.4167 55.1935 69.8968C54.8698 70.3769 54.6897 70.9394 54.6742 71.5182V72.036C54.6768 72.2618 54.7328 72.4838 54.8376 72.6838C54.9424 72.8839 55.093 73.0563 55.2772 73.187C55.4614 73.3177 55.6738 73.403 55.8973 73.4358C56.1207 73.4687 56.3487 73.4483 56.5627 73.3762C61.8826 71.5885 66.5062 68.1742 69.7802 63.6158C73.0541 59.0574 74.8128 53.5855 74.8078 47.9733Z" fill="white"/>
</svg>
