<svg width="105" height="104" viewBox="0 0 105 104" fill="none" xmlns="http://www.w3.org/2000/svg">
<path d="M52.4694 104C81.1882 104 104.469 80.7188 104.469 52C104.469 23.2812 81.1882 0 52.4694 0C23.7506 0 0.469391 23.2812 0.469391 52C0.469391 80.7188 23.7506 104 52.4694 104Z" fill="#26A17B"/>
<path fill-rule="evenodd" clip-rule="evenodd" d="M58.716 56.4947V56.4882C58.3585 56.5142 56.5158 56.6247 52.4045 56.6247C49.122 56.6247 46.8113 56.5272 45.9988 56.4882V56.498C33.3628 55.9422 23.9313 53.742 23.9313 51.1095C23.9313 48.4802 33.3628 46.28 45.9988 45.7145V54.3075C46.8243 54.366 49.1903 54.5057 52.4598 54.5057C56.3825 54.5057 58.3488 54.3432 58.716 54.3107V45.721C71.326 46.2832 80.7348 48.4835 80.7348 51.1095C80.7348 53.742 71.326 55.9357 58.716 56.4947ZM58.716 44.8272V37.1377H76.3115V25.4117H28.4033V37.1377H45.9988V44.824C31.6988 45.4805 20.9445 48.3145 20.9445 51.7075C20.9445 55.1005 31.6988 57.9312 45.9988 58.591V83.2325H58.716V58.5845C72.9933 57.928 83.7215 55.0972 83.7215 51.7075C83.7215 48.3177 72.9933 45.487 58.716 44.8272Z" fill="white"/>
</svg>
